<svg width="72" height="72" viewBox="0 0 72 72" fill="none" xmlns="http://www.w3.org/2000/svg">
<path d="M66.3577 8.61398C66.6803 8.69984 67.0117 8.76 67.3606 8.76C69.5263 8.76 71.2806 7.00566 71.2806 4.84C71.2806 2.67434 69.5263 0.919998 67.3606 0.919998C65.195 0.919998 63.4406 2.67434 63.4406 4.84C63.4406 5.18891 63.5008 5.52031 63.5866 5.84297L59.5189 9.90955C53.2775 4.32159 45.0373 0.920012 36.0003 0.920012C16.5152 0.920012 0.720351 16.7148 0.720351 36.2C0.720351 45.2366 4.12193 53.4774 9.70989 59.7186L5.64331 63.7863C5.32065 63.7005 4.98924 63.6403 4.64034 63.6403C2.4758 63.6403 0.720337 65.3946 0.720337 67.5603C0.720337 69.726 2.4758 71.4803 4.64034 71.4803C6.80488 71.4803 8.56034 69.726 8.56034 67.5603C8.56034 67.2114 8.50018 66.88 8.41432 66.5573L12.4809 62.4896C18.7235 68.0787 26.9639 71.4803 36.0009 71.4803C55.4861 71.4803 71.2809 55.6855 71.2809 36.2003C71.2809 27.1631 67.8793 18.9229 62.2908 12.6803L66.3577 8.61398ZM36.0001 67.5596C18.7087 67.5596 4.64006 53.491 4.64006 36.1996C4.64006 18.9082 18.7087 4.83958 36.0001 4.83958C53.2915 4.83958 67.36 18.9082 67.36 36.1996C67.36 53.491 53.2915 67.5596 36.0001 67.5596Z" fill="black"/>
<path d="M36.7574 13.982C37.423 14.6197 38.0896 15.3476 38.7519 16.164C44.8402 14.1751 50.5348 14.7027 54.016 18.1831C60.0332 24.1993 57.2344 36.8339 47.8357 46.6759C47.6148 46.9078 47.3944 47.1391 47.1664 47.3672C46.7409 47.7927 46.3072 48.2012 45.8714 48.6009C43.0166 51.2193 39.9498 53.2898 36.8901 54.7626C36.1939 55.0973 35.4983 55.397 34.8054 55.6688C34.8059 55.6693 34.807 55.671 34.8086 55.6721C28.1444 58.2933 21.7591 57.9935 17.9834 54.2168C11.9646 48.1962 14.7667 35.5576 24.1702 25.7128C24.1986 26.5216 24.2457 27.3491 24.3239 28.2027C24.6334 31.5681 25.3378 35.2514 26.4626 39.0346C28.3073 45.2416 30.9509 50.6113 33.7814 54.38C34.4508 54.129 35.1213 53.8408 35.7934 53.5296C32.9523 50.262 30.1589 44.878 28.2629 38.5006C27.0368 34.3738 26.3548 30.3927 26.1853 26.9326C26.1306 25.8109 26.1306 24.7451 26.1831 23.747L26.188 23.7421C26.2591 22.3858 26.4298 21.1564 26.6955 20.0829C26.6933 20.0851 26.6901 20.0878 26.6868 20.09C27.2796 17.6837 28.3536 16.0688 29.8849 15.6143C30.7583 15.3546 31.7142 15.4962 32.7107 15.9775C31.483 16.6687 30.2601 17.4328 29.0543 18.2886C28.5353 19.1472 28.1208 20.4733 27.8993 22.2611C30.2176 20.3694 32.6401 18.8343 35.0596 17.6669C35.6579 18.2312 36.2589 18.8951 36.8555 19.6504C39.4707 22.9611 41.9907 28.0033 43.7428 33.8982C45.0882 38.4241 45.7789 42.7756 45.8549 46.4549C45.9232 46.3876 45.9943 46.3242 46.0616 46.2564C46.6331 45.6849 47.1822 45.1014 47.7089 44.5081C47.4146 41.0583 46.7031 37.2642 45.5426 33.3634C43.7713 27.4068 41.266 22.2236 38.565 18.4842C35.3281 14.0031 31.8117 11.5969 28.9438 12.4489C26.1613 13.2758 24.543 17.0072 24.2101 22.2741C23.8443 22.6165 23.4757 22.9528 23.1164 23.3121C11.649 34.7763 8.10418 49.8827 15.2096 56.9891C19.9788 61.7583 28.3504 61.7239 36.806 57.7252C38.9957 59.6568 41.169 60.5137 43.0601 59.9515C45.8377 59.1251 47.4537 55.402 47.79 50.1492C48.1591 49.8036 48.5255 49.4492 48.887 49.0877C60.3506 37.6241 63.895 22.5157 56.7887 15.4107C52.3153 10.9368 44.6689 10.6929 36.7575 13.9823L36.7574 13.982ZM42.1184 56.7842C41.2522 57.0423 40.3033 56.8947 39.3162 56.4227C41.3473 55.2727 43.3625 53.8989 45.3138 52.3108C44.7204 54.7149 43.6481 56.3292 42.1184 56.7842Z" fill="black"/>
<path d="M41.8801 36.2C41.8801 39.4473 39.2474 42.08 36.0001 42.08C32.7528 42.08 30.1201 39.4473 30.1201 36.2C30.1201 32.9527 32.7528 30.32 36.0001 30.32C39.2474 30.32 41.8801 32.9527 41.8801 36.2Z" fill="black"/>
</svg>
