<svg width="80" height="84" viewBox="0 0 80 84" fill="none" xmlns="http://www.w3.org/2000/svg">
<path d="M73.3503 22.5008C72.3137 24.5746 71.2766 26.6479 70.067 28.7216C70.24 29.0669 70.24 29.4129 70.24 29.7582C70.24 30.4495 69.2034 34.0782 70.24 35.6331C71.1042 37.0157 71.4495 38.7435 71.2766 39.7802C71.6219 40.6444 72.4862 40.8168 73.0044 42.8906V43.0635C73.1774 43.5818 74.041 42.8906 74.387 43.9278C74.387 44.1007 74.5599 45.1373 75.0782 44.9644C75.4236 44.9644 75.4236 44.6191 75.7695 44.2731C76.1149 44.1001 76.4608 43.9278 76.8061 43.5818C77.1515 43.0635 77.1515 42.3723 77.8428 42.1993C78.0157 42.3723 78.0157 42.5446 78.0157 42.7176C78.88 62.7624 63.5008 80.388 42.9373 81.7704C20.9917 83.4989 1.98371 66.0456 1.98371 44.1C1.98371 35.1147 5.95842 25.956 7.68626 24.228C12.1792 27.6837 11.661 26.3018 12.8706 26.3018C13.7348 26.3018 15.4627 28.3755 16.1539 28.721C17.1905 29.2393 18.2277 29.5852 19.0914 29.2393C18.9184 30.2759 20.128 30.7942 20.4739 31.8314C20.4739 32.1768 20.4739 32.3497 20.6469 32.5227C20.8199 32.6957 21.3382 32.6957 21.1652 32.3497C21.3382 32.3497 22.2018 33.214 22.3748 33.3863C22.5477 33.5593 22.3748 33.9046 22.7201 33.9046C25.1393 34.7689 24.6209 34.423 24.9663 35.1142C25.1393 35.2872 25.3117 35.2872 25.4847 35.1142L25.1387 34.7683C25.1387 34.5953 25.3117 34.5953 25.4841 34.5953C25.8294 34.5953 26.5207 32.8675 27.0389 34.4223C30.1493 33.5581 33.7781 33.904 36.8885 35.6319C37.0615 35.8049 44.146 39.2607 44.146 47.9007C44.146 53.2574 38.0981 62.4156 32.9138 69.1551C32.3955 69.6734 31.8772 70.0194 31.3589 70.3647C30.3223 72.6109 32.5685 71.9196 30.6677 74.3394C30.4947 74.3394 30.1494 75.8943 30.4947 76.7586C30.3217 77.4499 30.1494 78.3135 30.4947 79.0048C31.3589 80.5597 32.9139 80.7327 33.0869 80.9056C33.2598 80.7327 33.4322 80.5603 33.6052 80.5603C34.1235 80.5603 34.4694 80.5603 34.9877 80.3873C35.1607 80.2144 34.9877 80.042 34.8147 80.042C34.1235 79.6967 34.4694 80.3873 33.7781 78.8324C34.1235 78.4871 34.6424 78.6594 34.8147 78.3141L34.9877 78.1411C35.333 77.7958 36.0243 77.9682 36.3702 77.1045C35.3336 76.9316 35.1607 76.2403 35.506 76.2403C36.1973 76.0673 36.7156 76.2403 36.8885 75.8949C35.1607 76.0679 34.8148 76.0679 34.6423 76.0679C34.8153 75.5496 35.6789 75.895 36.0248 75.0313C35.6795 75.0313 35.1606 74.8583 35.1606 74.513C34.9876 74.1677 36.1972 74.34 36.5431 74.1677C36.8885 73.9947 36.7161 73.4764 37.5797 73.131L37.4068 72.9581C37.4068 72.7851 37.4068 72.7851 37.5797 72.6127C37.2344 72.6127 37.2344 72.0944 37.4068 71.9215C37.5797 71.7485 37.9251 71.9215 38.271 71.9215C38.7893 72.0944 39.6535 71.2302 39.6535 71.0572V70.8842C39.8265 70.5389 42.9369 70.8842 43.9735 69.1564C43.8006 69.1564 43.8006 69.1564 43.6282 68.9834C43.8012 68.8105 43.6282 68.4651 43.4552 68.2921C43.2823 68.1192 42.9369 68.1192 42.9369 67.9468C44.1465 67.6015 44.6648 68.9834 47.2569 66.7372C52.2681 62.5902 51.5769 62.9355 51.5769 62.2443C51.5769 62.0713 51.7499 61.726 51.9223 61.726C51.7493 60.8617 54.6874 59.3068 55.5511 58.9609C56.5877 58.6155 57.2789 58.7879 59.6981 55.1591C59.8711 54.8138 60.2164 54.4678 60.3894 54.1225C60.9077 53.0859 60.9077 51.8763 61.2536 50.8391C62.1179 48.7654 64.364 47.2103 64.537 44.0999C64.537 42.7174 63.6728 43.5816 62.8092 42.8904C60.7354 41.3355 61.0813 41.3355 60.39 41.8538C59.6987 42.1991 58.6621 41.3355 57.9707 41.8538C57.7978 42.0267 57.7978 42.0267 57.6254 42.0267C57.4524 41.5084 57.2801 41.1625 57.2801 41.1625C57.1071 41.1625 56.9347 41.3354 56.7618 41.3354C56.5888 41.3354 56.5888 40.8171 55.0339 40.8171C54.5156 40.8171 54.6886 40.8171 54.3426 41.1625C53.9973 41.6808 53.6514 42.0267 53.4784 42.0267C53.4784 42.0267 53.3054 41.8538 53.4784 41.6814C53.6514 41.5084 53.9967 41.6814 54.1697 40.6448V40.4718C53.9967 40.2988 52.2689 40.8171 51.9234 40.9901C51.9234 40.6448 52.0964 40.4718 52.4417 40.2988C53.4784 39.4346 53.306 38.7439 52.96 38.571C52.0958 38.0527 52.7871 36.6702 51.5775 36.1518C47.9487 34.5969 47.4305 35.6335 46.9122 35.4605C46.5669 35.2875 46.3939 34.9422 46.048 34.9422C45.7026 34.9422 45.7026 34.9422 45.7026 34.5969C45.7026 34.2515 43.9748 33.042 43.6289 33.3873C43.2835 33.2143 43.4559 32.869 43.1106 32.696C42.9376 32.5231 42.2463 32.5231 41.728 32.0047C41.901 32.0047 42.0734 31.6594 41.901 31.6594C41.728 31.4864 41.3827 31.6594 40.1731 31.8324C39.3089 32.5237 38.4453 31.8324 37.7539 32.0053C37.2356 32.0053 36.7173 32.3507 36.5444 32.0053C36.0261 31.3141 35.8531 31.66 35.1618 31.487V30.9687C34.9889 30.7958 34.6435 31.1417 34.6435 31.3141C34.2982 31.3141 33.7793 31.8324 33.7793 32.1783C33.6063 32.5237 34.1246 32.8696 34.1246 33.0426C34.1246 33.3879 33.6063 33.5609 33.4333 33.3879C33.088 33.0426 33.6063 32.5237 33.4333 32.0054V31.4871C33.4333 31.1417 33.7787 30.9687 33.7787 30.6228C33.4333 30.6228 33.0874 30.9681 32.9144 31.1411C31.8778 30.7958 30.1493 31.6594 29.804 32.1777C29.6311 32.3507 29.2857 33.2143 28.9398 34.0785C28.2485 34.5968 28.0755 32.696 25.8294 33.3873C25.6564 33.3873 25.3111 33.5602 25.1381 33.5602C24.6198 33.5602 24.1015 33.3873 23.9285 32.8689C23.7556 32.1777 23.7556 32.3506 23.2373 32.1777C20.991 30.9681 26.3477 26.6481 18.399 27.1665C19.2633 22.3282 20.6453 23.1918 20.2998 22.3282C20.1269 21.6369 17.1894 21.464 16.4981 23.3648C15.8068 25.4386 15.8068 23.7102 14.5973 24.0561C14.079 24.2291 13.733 24.5744 13.0424 23.8831C12.1781 23.0189 11.1416 21.4639 11.6598 20.2543C11.8328 19.909 11.6598 19.5631 11.4869 19.0448C13.0418 17.144 14.9426 15.5891 16.6712 14.2065C17.1895 14.5519 17.5354 15.0708 18.572 14.2065C18.9173 13.8612 18.399 13.8612 18.7449 13.6882C19.6092 13.3429 20.4728 13.5153 21.3371 13.8612C22.5467 14.3795 22.3737 14.0342 22.892 14.0342C23.5833 14.0342 23.7562 14.7254 23.7562 15.4167C24.1016 19.0455 25.83 18.7001 25.83 17.8359C25.83 17.4906 25.657 17.3176 25.657 16.9717C25.657 16.7987 25.83 16.6263 25.83 16.4533C26.1753 15.0708 23.2378 13.3429 27.0396 11.269C28.0762 10.5778 29.2858 9.8865 30.15 9.19528C29.977 8.67697 29.977 8.15867 30.15 7.81274C35.5066 6.4302 41.0362 6.25785 46.3932 7.29443C46.7385 6.77613 47.0844 6.25782 47.4298 5.73954C42.0731 4.70293 36.0247 4.70293 30.4954 6.08488C13.0426 9.71306 0.255371 25.6097 0.255371 44.0993C0.255371 67.2545 19.9546 85.3986 42.7642 83.6705C62.809 82.288 78.7066 66.0449 79.5706 45.8273V44.0995C79.7442 36.1507 77.325 28.7203 73.3504 22.4995L73.3503 22.5008Z" fill="black"/>
<path d="M58.4895 38.0528C59.0078 38.7441 60.0444 38.917 60.9087 38.5711C62.1183 38.0528 74.0417 21.2911 74.0417 14.7247C74.0417 9.5404 71.2766 5.04806 67.1295 2.62902C57.9713 -2.72763 46.0479 3.83859 46.0479 14.7247C45.875 20.7726 54.6879 33.2143 58.4897 38.0527L58.4895 38.0528ZM59.8721 5.7392C64.7103 5.7392 68.685 9.71391 68.685 14.5522C68.685 19.3904 64.7103 23.3651 59.8721 23.3651C55.0338 23.3651 51.0591 19.3904 51.0591 14.5522C51.0591 9.71391 55.0338 5.7392 59.8721 5.7392Z" fill="black"/>
<path d="M42.7648 47.7296C42.7648 43.2366 40.3456 39.4349 36.7169 37.1888C28.7681 32.5235 18.4001 38.2254 18.4001 47.7296C18.4001 53.0862 26.0035 63.8 29.2864 67.9472C29.9777 68.8114 31.1872 68.8114 31.8785 67.9472C34.9883 63.9731 42.7648 53.0864 42.7648 47.7296ZM22.8928 47.7296C22.8928 43.4096 26.3485 40.1262 30.4961 40.1262C34.6432 40.1262 38.0995 43.5819 38.0995 47.7296C38.0995 52.0496 34.6438 55.333 30.4961 55.333C26.3485 55.333 22.8928 51.8766 22.8928 47.7296Z" fill="black"/>
</svg>
