<svg width="116" height="72" viewBox="0 0 116 72" fill="none" xmlns="http://www.w3.org/2000/svg">
<path d="M68.4134 59.3106H110.811C111.165 59.3203 111.516 59.2583 111.847 59.1281C112.177 58.998 112.479 58.8023 112.735 58.5521C112.992 58.302 113.198 58.0023 113.342 57.6703C113.486 57.3382 113.565 56.9803 113.574 56.617V5.293C113.574 4.93056 113.504 4.57171 113.368 4.23709C113.233 3.90247 113.034 3.5987 112.784 3.34326C112.534 3.08783 112.237 2.88578 111.911 2.74875C111.584 2.61171 111.234 2.5424 110.882 2.5448H5.11817C4.41036 2.54957 3.73286 2.84064 3.23235 3.355C2.73185 3.86936 2.44861 4.5656 2.44397 5.293V56.5624C2.45314 57.2883 2.73784 57.9819 3.23737 58.4952C3.7369 59.0086 4.41178 59.3012 5.11817 59.3106H47.5157" stroke="black" stroke-width="4" stroke-linecap="round" stroke-linejoin="round"/>
<path d="M31.7362 48.0994C40.9694 48.0994 48.4543 40.4073 48.4543 30.9186C48.4543 21.4299 40.9694 13.7378 31.7362 13.7378C22.503 13.7378 15.018 21.4299 15.018 30.9186C15.018 40.4073 22.503 48.0994 31.7362 48.0994Z" stroke="black" stroke-width="4" stroke-linecap="round" stroke-linejoin="round"/>
<path d="M31.7362 39.9276C36.5778 39.9276 40.5026 35.8941 40.5026 30.9186C40.5026 25.9431 36.5778 21.9096 31.7362 21.9096C26.8946 21.9096 22.9698 25.9431 22.9698 30.9186C22.9698 35.8941 26.8946 39.9276 31.7362 39.9276Z" stroke="black" stroke-width="4" stroke-linecap="round" stroke-linejoin="round"/>
<path d="M83.2012 48.0994C92.4344 48.0994 99.9194 40.4073 99.9194 30.9186C99.9194 21.4299 92.4344 13.7378 83.2012 13.7378C73.968 13.7378 66.483 21.4299 66.483 30.9186C66.483 40.4073 73.968 48.0994 83.2012 48.0994Z" stroke="black" stroke-width="4" stroke-linecap="round" stroke-linejoin="round"/>
<path d="M83.2012 39.9276C88.0428 39.9276 91.9676 35.8941 91.9676 30.9186C91.9676 25.9431 88.0428 21.9096 83.2012 21.9096C78.3597 21.9096 74.4348 25.9431 74.4348 30.9186C74.4348 35.8941 78.3597 39.9276 83.2012 39.9276Z" stroke="black" stroke-width="4" stroke-linecap="round" stroke-linejoin="round"/>
<path d="M63.7203 48.5362H52.2088C50.1451 48.5362 48.472 50.2555 48.472 52.3764V65.99C48.472 68.1109 50.1451 69.8302 52.2088 69.8302H63.7203C65.7841 69.8302 67.4571 68.1109 67.4571 65.99V52.3764C67.4571 50.2555 65.7841 48.5362 63.7203 48.5362Z" stroke="black" stroke-width="4" stroke-linecap="round" stroke-linejoin="round"/>
</svg>
